<svg width="194" height="217" viewBox="0 0 194 217" fill="none" xmlns="http://www.w3.org/2000/svg">
<path d="M148.506 58.5613C139.025 58.5851 129.89 60.0658 121.307 62.7871C121.281 62.7954 121.253 62.7955 121.226 62.7873C112.63 60.1087 103.488 58.6727 94.0068 58.6964C43.9449 58.8211 3.46205 99.5052 3.58622 149.567C3.7104 199.629 44.3945 240.112 94.4569 239.988C103.937 239.964 113.073 238.483 121.655 235.762C121.682 235.754 121.71 235.754 121.736 235.762C130.333 238.44 139.475 239.876 148.956 239.853C199.018 239.728 239.501 199.045 239.377 148.982C239.252 98.9209 198.568 58.4376 148.506 58.5613Z" fill="url(#paint0_linear_2302_4585)"/>
<path opacity="0.1" d="M148.962 239.851C156.236 239.833 163.305 238.953 170.079 237.318C181.469 228.124 188.666 214.607 193.152 200.669C200.459 177.963 201.249 153.199 195.402 130.074C192.616 119.052 188.276 108.27 181.329 99.2701C174.381 90.2701 164.649 83.1436 153.546 80.6948C174.392 102.02 184.459 133.389 179.915 162.862C175.372 192.335 156.324 219.216 130.024 233.273C128.345 234.17 126.478 235.345 125.234 236.769C132.8 238.795 140.754 239.871 148.962 239.851Z" fill="#5875B1"/>
<path d="M215.305 82.4748C197.512 64.7283 173.878 54.9552 148.754 54.9552L148.515 54.9556C140.4 54.9756 132.376 56.0261 124.602 58.0814C124.106 52.9117 123.899 46.4956 125.909 40.8749C127.928 35.2276 132.296 30.9618 137.036 30.0075C139.531 29.505 142.468 30.1521 144.695 31.6959C146.502 32.9486 147.66 34.6466 147.954 36.476C148.271 38.4413 150.119 39.7816 152.086 39.4614C154.052 39.145 155.389 37.2948 155.072 35.3294C154.462 31.5456 152.236 28.151 148.803 25.7703C144.963 23.1079 140.034 22.0498 135.613 22.939C130.341 24.0004 125.58 27.4198 122.251 32.2997C120.818 26.9397 118.992 21.6811 116.777 16.5971C114.3 10.915 110.087 3.07963 102.114 0.649895C100.696 0.218852 99.2192 0 97.7239 0C89.0074 0 80.829 7.30062 79.4921 16.2745C78.1476 25.2983 83.0998 35.2042 91.8144 40.9229C98.3015 45.1791 106.618 47.3924 117.222 47.6907C116.929 51.3065 117.078 54.8177 117.353 57.9501C109.829 56.0532 102.082 55.0898 94.2546 55.0898L94.0172 55.0903C42.0475 55.2192 -0.128638 97.6046 0.000294824 149.574C0.0626201 174.707 9.89764 198.323 27.6941 216.072C45.4872 233.819 69.1218 243.592 94.246 243.592L94.4839 243.591C103.762 243.568 112.92 242.199 121.723 239.52C130.465 242.133 139.55 243.456 148.745 243.457L148.983 243.456C174.158 243.394 197.802 233.532 215.559 215.686C233.316 197.84 243.062 174.147 243 148.972C242.937 123.84 233.102 100.224 215.305 82.4748ZM95.7694 34.8955C90.4356 31.3957 85.5391 24.6089 86.6224 17.3369C87.4259 11.9417 92.6137 7.20927 97.7239 7.20927C98.5075 7.20927 99.2773 7.3225 100.013 7.54659C103.912 8.73505 107.138 12.5259 110.168 19.4769C113.103 26.2104 115.323 33.2679 116.774 40.4667C107.86 40.1417 100.982 38.3162 95.7694 34.8955ZM210.449 210.601C194.05 227.082 172.214 236.189 148.965 236.247L148.745 236.248C143.134 236.247 137.569 235.713 132.111 234.655C144.093 229.014 154.872 220.859 163.629 210.636C178.289 193.525 186.331 171.676 186.276 149.113C186.209 122.135 174.549 96.4295 154.287 78.5878C152.794 77.2723 150.515 77.4165 149.2 78.9114C147.884 80.4053 148.028 82.6832 149.523 83.9987C168.237 100.477 179.005 124.217 179.066 149.132C179.118 169.968 171.691 190.146 158.154 205.947C144.757 221.584 126.249 231.997 106.038 235.267C105.557 235.345 105.115 235.516 104.725 235.756C101.333 236.164 97.908 236.374 94.4649 236.383L94.2446 236.384C71.043 236.384 49.2163 227.358 32.7834 210.969C16.3485 194.577 7.26523 172.767 7.20814 149.558C7.09062 101.562 46.0401 62.4185 94.0343 62.2995L94.2541 62.2991C103.101 62.2991 111.834 63.625 120.211 66.2393C120.916 66.4596 121.671 66.4577 122.377 66.2341C130.81 63.556 139.61 62.1868 148.533 62.1649L148.754 62.1644C171.956 62.1644 193.783 71.1902 210.215 87.5793C226.65 103.971 235.733 125.78 235.79 148.99C235.848 172.239 226.847 194.12 210.449 210.601Z" fill="#D0696B"/>
<defs>
<linearGradient id="paint0_linear_2302_4585" x1="95.2811" y1="80.2965" x2="95.2811" y2="245.87" gradientUnits="userSpaceOnUse">
<stop stop-color="#FFD5CA"/>
<stop offset="1" stop-color="#F39983"/>
</linearGradient>
</defs>
</svg>
