<svg width="588" height="238" viewBox="0 0 588 238" fill="none" xmlns="http://www.w3.org/2000/svg">
<line x1="76.438" y1="1.64733e-08" x2="76.438" y2="238" stroke="url(#paint0_linear_4002_3564)" stroke-width="0.875949"/>
<line x1="317.438" y1="1.64733e-08" x2="317.438" y2="238" stroke="url(#paint1_linear_4002_3564)" stroke-width="0.875949"/>
<line x1="438.438" y1="1.64733e-08" x2="438.438" y2="238" stroke="url(#paint2_linear_4002_3564)" stroke-width="0.875949"/>
<line x1="136.438" y1="1.64733e-08" x2="136.438" y2="238" stroke="url(#paint3_linear_4002_3564)" stroke-width="0.875949"/>
<line x1="258.438" y1="1.64733e-08" x2="258.438" y2="238" stroke="url(#paint4_linear_4002_3564)" stroke-width="0.875949"/>
<line x1="499.438" y1="1.64733e-08" x2="499.438" y2="238" stroke="url(#paint5_linear_4002_3564)" stroke-width="0.875949"/>
<line x1="587.594" y1="87.581" x2="0.00189206" y2="87.581" stroke="url(#paint6_linear_4002_3564)" stroke-width="0.875949"/>
<line x1="587.594" y1="208.336" x2="0.00189206" y2="208.336" stroke="url(#paint7_linear_4002_3564)" stroke-width="0.875949"/>
<g filter="url(#filter0_d_4002_3564)">
<circle cx="76.1709" cy="208.182" r="1.51076" fill="#8A94BB"/>
</g>
<g filter="url(#filter1_d_4002_3564)">
<circle cx="136.605" cy="208.182" r="1.51076" fill="#8A94BB"/>
</g>
<g filter="url(#filter2_d_4002_3564)">
<circle cx="257.464" cy="208.182" r="1.51076" fill="#8A94BB"/>
</g>
<g filter="url(#filter3_d_4002_3564)">
<circle cx="317.894" cy="208.182" r="1.51076" fill="#8A94BB"/>
</g>
<g filter="url(#filter4_d_4002_3564)">
<circle cx="438.753" cy="208.182" r="1.51076" fill="#8A94BB"/>
</g>
<g filter="url(#filter5_d_4002_3564)">
<circle cx="499.183" cy="208.182" r="1.51076" fill="#8A94BB"/>
</g>
<g filter="url(#filter6_d_4002_3564)">
<circle cx="438.753" cy="27.4959" r="1.51076" fill="#8A94BB"/>
</g>
<g filter="url(#filter7_d_4002_3564)">
<circle cx="438.753" cy="87.9262" r="1.51076" fill="#8A94BB"/>
</g>
<g filter="url(#filter8_d_4002_3564)">
<circle cx="499.183" cy="27.4959" r="1.51076" fill="#8A94BB"/>
</g>
<g filter="url(#filter9_d_4002_3564)">
<circle cx="499.183" cy="87.926" r="1.51076" fill="#8A94BB"/>
</g>
<g filter="url(#filter10_d_4002_3564)">
<circle cx="258.511" cy="27.4959" r="1.51076" fill="#8A94BB"/>
</g>
<g filter="url(#filter11_d_4002_3564)">
<circle cx="258.511" cy="87.9262" r="1.51076" fill="#8A94BB"/>
</g>
<g filter="url(#filter12_d_4002_3564)">
<circle cx="317.894" cy="27.4959" r="1.51076" fill="#8A94BB"/>
</g>
<g filter="url(#filter13_d_4002_3564)">
<circle cx="317.894" cy="87.926" r="1.51076" fill="#8A94BB"/>
</g>
<g filter="url(#filter14_d_4002_3564)">
<circle cx="76.1709" cy="27.4959" r="1.51076" fill="#8A94BB"/>
</g>
<g filter="url(#filter15_d_4002_3564)">
<circle cx="76.1709" cy="87.9262" r="1.51076" fill="#8A94BB"/>
</g>
<g filter="url(#filter16_d_4002_3564)">
<circle cx="136.601" cy="27.4959" r="1.51076" fill="#8A94BB"/>
</g>
<g filter="url(#filter17_d_4002_3564)">
<circle cx="136.601" cy="87.926" r="1.51076" fill="#8A94BB"/>
</g>
<g filter="url(#filter18_i_4002_3564)">
<circle cx="75.5179" cy="83.5172" r="18.4828" fill="url(#paint8_linear_4002_3564)"/>
</g>
<circle cx="75.5179" cy="83.5172" r="17.7544" stroke="#483743" stroke-width="1.45685"/>
<g filter="url(#filter19_i_4002_3564)">
<circle cx="499.483" cy="158.983" r="20.9828" fill="url(#paint9_linear_4002_3564)"/>
</g>
<circle cx="499.483" cy="158.983" r="20.2544" stroke="#483743" stroke-width="1.45685"/>
<path fill-rule="evenodd" clip-rule="evenodd" d="M75.8547 77.7838C73.2082 77.7838 71.0628 79.9293 71.0628 82.5758V86.7978C71.0628 86.9361 70.9506 87.0483 70.8123 87.0483H70.6742C70.5359 87.0483 70.4238 86.9361 70.4238 86.7978V82.5758C70.4238 79.5764 72.8553 77.1449 75.8547 77.1449C78.8541 77.1449 81.2856 79.5764 81.2856 82.5758V88.0067C81.2856 88.7124 80.7135 89.2845 80.0077 89.2845C79.302 89.2845 78.7299 88.7124 78.7299 88.0067V82.5758C78.7299 80.9879 77.4426 79.7006 75.8547 79.7006C74.2668 79.7006 72.9795 80.9879 72.9795 82.5758V89.0341C72.9795 89.1724 72.8674 89.2845 72.7291 89.2845H72.591C72.4527 89.2845 72.3406 89.1724 72.3406 89.0341V82.5758C72.3406 80.635 73.9139 79.0617 75.8547 79.0617C77.7955 79.0617 79.3688 80.635 79.3688 82.5758V88.0067C79.3688 88.3595 79.6549 88.6456 80.0077 88.6456C80.3606 88.6456 80.6467 88.3595 80.6467 88.0067V82.5758C80.6467 79.9293 78.5012 77.7838 75.8547 77.7838Z" fill="url(#paint10_linear_4002_3564)"/>
<path fill-rule="evenodd" clip-rule="evenodd" d="M75.8551 81.6173C75.3258 81.6173 74.8967 82.0464 74.8967 82.5757V89.9924C74.8967 90.1307 74.7846 90.2428 74.6463 90.2428H74.5082C74.3699 90.2428 74.2578 90.1307 74.2578 89.9924V82.5757C74.2578 81.6935 74.973 80.9784 75.8551 80.9784C76.7373 80.9784 77.4524 81.6935 77.4524 82.5757V87.1172C77.4524 87.2555 77.3403 87.3677 77.202 87.3677H77.0639C76.9256 87.3677 76.8135 87.2555 76.8135 87.1172V82.5757C76.8135 82.0464 76.3844 81.6173 75.8551 81.6173Z" fill="url(#paint11_linear_4002_3564)"/>
<path fill-rule="evenodd" clip-rule="evenodd" d="M502.578 152.144C501.115 152.144 499.929 153.33 499.929 154.793C499.929 156.256 501.115 157.442 502.578 157.442C504.041 157.442 505.227 156.256 505.227 154.793C505.227 153.33 504.041 152.144 502.578 152.144ZM499.267 154.793C499.267 152.964 500.749 151.482 502.578 151.482C504.406 151.482 505.889 152.964 505.889 154.793C505.889 156.622 504.406 158.104 502.578 158.104C500.749 158.104 499.267 156.622 499.267 154.793Z" fill="url(#paint12_linear_4002_3564)"/>
<path fill-rule="evenodd" clip-rule="evenodd" d="M495.293 159.428C493.83 159.428 492.644 160.614 492.644 162.077C492.644 163.54 493.83 164.726 495.293 164.726C496.756 164.726 497.942 163.54 497.942 162.077C497.942 160.614 496.756 159.428 495.293 159.428ZM491.981 162.077C491.981 160.249 493.464 158.766 495.293 158.766C497.121 158.766 498.604 160.249 498.604 162.077C498.604 163.906 497.121 165.389 495.293 165.389C493.464 165.389 491.981 163.906 491.981 162.077Z" fill="url(#paint13_linear_4002_3564)"/>
<path fill-rule="evenodd" clip-rule="evenodd" d="M503.652 160.422C503.79 160.422 503.902 160.534 503.902 160.672V163.733C503.902 163.916 503.754 164.064 503.571 164.064H501.172C501.034 164.064 500.922 163.952 500.922 163.814V163.652C500.922 163.514 501.034 163.402 501.172 163.402H502.989C503.128 163.402 503.24 163.29 503.24 163.152V160.672C503.24 160.534 503.352 160.422 503.49 160.422H503.652Z" fill="url(#paint14_linear_4002_3564)"/>
<path fill-rule="evenodd" clip-rule="evenodd" d="M503.401 160.138C503.509 160.073 503.645 160.075 503.751 160.144L505.077 161.001C505.194 161.076 505.227 161.231 505.152 161.347L505.064 161.483C504.989 161.599 504.834 161.632 504.718 161.557L503.696 160.897C503.615 160.845 503.513 160.843 503.431 160.892L502.301 161.57C502.182 161.641 502.028 161.603 501.957 161.484L501.874 161.346C501.803 161.227 501.841 161.074 501.96 161.002L503.401 160.138Z" fill="url(#paint15_linear_4002_3564)"/>
<path fill-rule="evenodd" clip-rule="evenodd" d="M494.431 156.448C494.293 156.448 494.181 156.336 494.181 156.198V153.137C494.181 152.954 494.329 152.806 494.512 152.806H496.911C497.049 152.806 497.161 152.918 497.161 153.056V153.218C497.161 153.356 497.049 153.468 496.911 153.468H495.094C494.955 153.468 494.843 153.58 494.843 153.719V156.198C494.843 156.336 494.731 156.448 494.593 156.448H494.431Z" fill="url(#paint16_linear_4002_3564)"/>
<path fill-rule="evenodd" clip-rule="evenodd" d="M494.682 156.732C494.574 156.797 494.438 156.795 494.332 156.727L493.006 155.869C492.889 155.794 492.856 155.639 492.931 155.523L493.019 155.387C493.094 155.271 493.249 155.238 493.365 155.313L494.387 155.974C494.468 156.026 494.57 156.027 494.652 155.978L495.782 155.3C495.901 155.229 496.055 155.267 496.126 155.386L496.209 155.524C496.28 155.643 496.242 155.797 496.123 155.868L494.682 156.732Z" fill="url(#paint17_linear_4002_3564)"/>
<circle cx="290.5" cy="117.5" r="108.5" fill="url(#paint18_radial_4002_3564)"/>
<g filter="url(#filter20_i_4002_3564)">
<circle cx="290.5" cy="114.5" r="57.5" fill="url(#paint19_linear_4002_3564)"/>
</g>
<circle cx="290.5" cy="114.5" r="56.7716" stroke="#483743" stroke-width="1.45685"/>
<path fill-rule="evenodd" clip-rule="evenodd" d="M264.982 113.65C264.982 112.951 265.549 112.385 266.247 112.385H273.837C274.535 112.385 275.102 112.951 275.102 113.65V133.888C275.102 134.587 274.535 135.153 273.837 135.153H266.247C265.549 135.153 264.982 134.587 264.982 133.888V113.65ZM267.763 114.914C267.624 114.914 267.512 115.027 267.512 115.165V132.373C267.512 132.511 267.624 132.623 267.763 132.623H272.321C272.46 132.623 272.572 132.511 272.572 132.373V115.165C272.572 115.027 272.46 114.914 272.321 114.914H267.763Z" fill="url(#paint20_linear_4002_3564)"/>
<path fill-rule="evenodd" clip-rule="evenodd" d="M284.565 122.957C284.648 122.846 284.805 122.824 284.915 122.907L293.485 129.334C294.142 129.827 294.941 130.093 295.762 130.093H313.049C315.843 130.093 318.108 132.358 318.108 135.153C318.108 137.947 315.843 140.212 313.049 140.212H291.952C291.355 140.212 290.76 140.128 290.186 139.961L273.724 135.172C273.591 135.134 273.515 134.995 273.553 134.862L274.12 132.914C274.159 132.781 274.298 132.705 274.43 132.743L290.893 137.532C291.237 137.632 291.594 137.683 291.952 137.683H313.049C314.446 137.683 315.578 136.55 315.578 135.153C315.578 133.756 314.446 132.623 313.049 132.623H295.762C294.393 132.623 293.062 132.179 291.967 131.358L283.397 124.931C283.287 124.848 283.264 124.691 283.347 124.58L284.565 122.957Z" fill="url(#paint21_linear_4002_3564)"/>
<path fill-rule="evenodd" clip-rule="evenodd" d="M284.39 114.914H274.087C273.949 114.914 273.837 114.802 273.837 114.664V112.635C273.837 112.497 273.949 112.385 274.087 112.385H284.39C286.068 112.385 287.676 113.051 288.862 114.237L297.455 122.829C298.531 123.905 299.135 125.365 299.135 126.886V128.512C299.135 130.783 297.294 132.623 295.024 132.623C294.135 132.623 293.269 132.335 292.557 131.801L283.398 124.931C283.287 124.848 283.264 124.691 283.347 124.58L284.565 122.957C284.648 122.847 284.805 122.824 284.915 122.907L294.075 129.777C294.349 129.982 294.682 130.093 295.024 130.093C295.897 130.093 296.605 129.385 296.605 128.512V126.886C296.605 126.035 296.267 125.22 295.666 124.618L287.073 116.026C286.362 115.314 285.397 114.914 284.39 114.914Z" fill="url(#paint22_linear_4002_3564)"/>
<path fill-rule="evenodd" clip-rule="evenodd" d="M305.459 93.411C299.87 93.411 295.339 97.9416 295.339 103.53C295.339 109.119 299.87 113.649 305.459 113.649C311.047 113.649 315.578 109.119 315.578 103.53C315.578 97.9416 311.047 93.411 305.459 93.411ZM292.81 103.53C292.81 96.5444 298.473 90.8812 305.459 90.8812C312.444 90.8812 318.108 96.5444 318.108 103.53C318.108 110.516 312.444 116.179 305.459 116.179C298.473 116.179 292.81 110.516 292.81 103.53Z" fill="url(#paint23_linear_4002_3564)"/>
<path fill-rule="evenodd" clip-rule="evenodd" d="M304.445 107.325C304.306 107.325 304.194 107.213 304.194 107.075V99.986C304.194 99.8477 304.306 99.7356 304.445 99.7356H306.474C306.612 99.7356 306.724 99.8477 306.724 99.986V107.075C306.724 107.213 306.612 107.325 306.474 107.325H304.445Z" fill="url(#paint24_linear_4002_3564)"/>
<defs>
<filter id="filter0_d_4002_3564" x="71.1564" y="203.168" width="10.0291" height="10.0291" filterUnits="userSpaceOnUse" color-interpolation-filters="sRGB">
<feFlood flood-opacity="0" result="BackgroundImageFix"/>
<feColorMatrix in="SourceAlpha" type="matrix" values="0 0 0 0 0 0 0 0 0 0 0 0 0 0 0 0 0 0 127 0" result="hardAlpha"/>
<feOffset/>
<feGaussianBlur stdDeviation="1.7519"/>
<feComposite in2="hardAlpha" operator="out"/>
<feColorMatrix type="matrix" values="0 0 0 0 0.300483 0 0 0 0 0.323655 0 0 0 0 0.42098 0 0 0 1 0"/>
<feBlend mode="normal" in2="BackgroundImageFix" result="effect1_dropShadow_4002_3564"/>
<feBlend mode="normal" in="SourceGraphic" in2="effect1_dropShadow_4002_3564" result="shape"/>
</filter>
<filter id="filter1_d_4002_3564" x="131.59" y="203.168" width="10.0291" height="10.0291" filterUnits="userSpaceOnUse" color-interpolation-filters="sRGB">
<feFlood flood-opacity="0" result="BackgroundImageFix"/>
<feColorMatrix in="SourceAlpha" type="matrix" values="0 0 0 0 0 0 0 0 0 0 0 0 0 0 0 0 0 0 127 0" result="hardAlpha"/>
<feOffset/>
<feGaussianBlur stdDeviation="1.7519"/>
<feComposite in2="hardAlpha" operator="out"/>
<feColorMatrix type="matrix" values="0 0 0 0 0.300483 0 0 0 0 0.323655 0 0 0 0 0.42098 0 0 0 1 0"/>
<feBlend mode="normal" in2="BackgroundImageFix" result="effect1_dropShadow_4002_3564"/>
<feBlend mode="normal" in="SourceGraphic" in2="effect1_dropShadow_4002_3564" result="shape"/>
</filter>
<filter id="filter2_d_4002_3564" x="252.449" y="203.168" width="10.0291" height="10.0291" filterUnits="userSpaceOnUse" color-interpolation-filters="sRGB">
<feFlood flood-opacity="0" result="BackgroundImageFix"/>
<feColorMatrix in="SourceAlpha" type="matrix" values="0 0 0 0 0 0 0 0 0 0 0 0 0 0 0 0 0 0 127 0" result="hardAlpha"/>
<feOffset/>
<feGaussianBlur stdDeviation="1.7519"/>
<feComposite in2="hardAlpha" operator="out"/>
<feColorMatrix type="matrix" values="0 0 0 0 0.300483 0 0 0 0 0.323655 0 0 0 0 0.42098 0 0 0 1 0"/>
<feBlend mode="normal" in2="BackgroundImageFix" result="effect1_dropShadow_4002_3564"/>
<feBlend mode="normal" in="SourceGraphic" in2="effect1_dropShadow_4002_3564" result="shape"/>
</filter>
<filter id="filter3_d_4002_3564" x="312.879" y="203.168" width="10.0291" height="10.0291" filterUnits="userSpaceOnUse" color-interpolation-filters="sRGB">
<feFlood flood-opacity="0" result="BackgroundImageFix"/>
<feColorMatrix in="SourceAlpha" type="matrix" values="0 0 0 0 0 0 0 0 0 0 0 0 0 0 0 0 0 0 127 0" result="hardAlpha"/>
<feOffset/>
<feGaussianBlur stdDeviation="1.7519"/>
<feComposite in2="hardAlpha" operator="out"/>
<feColorMatrix type="matrix" values="0 0 0 0 0.300483 0 0 0 0 0.323655 0 0 0 0 0.42098 0 0 0 1 0"/>
<feBlend mode="normal" in2="BackgroundImageFix" result="effect1_dropShadow_4002_3564"/>
<feBlend mode="normal" in="SourceGraphic" in2="effect1_dropShadow_4002_3564" result="shape"/>
</filter>
<filter id="filter4_d_4002_3564" x="433.738" y="203.168" width="10.0291" height="10.0291" filterUnits="userSpaceOnUse" color-interpolation-filters="sRGB">
<feFlood flood-opacity="0" result="BackgroundImageFix"/>
<feColorMatrix in="SourceAlpha" type="matrix" values="0 0 0 0 0 0 0 0 0 0 0 0 0 0 0 0 0 0 127 0" result="hardAlpha"/>
<feOffset/>
<feGaussianBlur stdDeviation="1.7519"/>
<feComposite in2="hardAlpha" operator="out"/>
<feColorMatrix type="matrix" values="0 0 0 0 0.300483 0 0 0 0 0.323655 0 0 0 0 0.42098 0 0 0 1 0"/>
<feBlend mode="normal" in2="BackgroundImageFix" result="effect1_dropShadow_4002_3564"/>
<feBlend mode="normal" in="SourceGraphic" in2="effect1_dropShadow_4002_3564" result="shape"/>
</filter>
<filter id="filter5_d_4002_3564" x="494.168" y="203.168" width="10.0291" height="10.0291" filterUnits="userSpaceOnUse" color-interpolation-filters="sRGB">
<feFlood flood-opacity="0" result="BackgroundImageFix"/>
<feColorMatrix in="SourceAlpha" type="matrix" values="0 0 0 0 0 0 0 0 0 0 0 0 0 0 0 0 0 0 127 0" result="hardAlpha"/>
<feOffset/>
<feGaussianBlur stdDeviation="1.7519"/>
<feComposite in2="hardAlpha" operator="out"/>
<feColorMatrix type="matrix" values="0 0 0 0 0.300483 0 0 0 0 0.323655 0 0 0 0 0.42098 0 0 0 1 0"/>
<feBlend mode="normal" in2="BackgroundImageFix" result="effect1_dropShadow_4002_3564"/>
<feBlend mode="normal" in="SourceGraphic" in2="effect1_dropShadow_4002_3564" result="shape"/>
</filter>
<filter id="filter6_d_4002_3564" x="433.738" y="22.4813" width="10.0291" height="10.0291" filterUnits="userSpaceOnUse" color-interpolation-filters="sRGB">
<feFlood flood-opacity="0" result="BackgroundImageFix"/>
<feColorMatrix in="SourceAlpha" type="matrix" values="0 0 0 0 0 0 0 0 0 0 0 0 0 0 0 0 0 0 127 0" result="hardAlpha"/>
<feOffset/>
<feGaussianBlur stdDeviation="1.7519"/>
<feComposite in2="hardAlpha" operator="out"/>
<feColorMatrix type="matrix" values="0 0 0 0 0.300483 0 0 0 0 0.323655 0 0 0 0 0.42098 0 0 0 1 0"/>
<feBlend mode="normal" in2="BackgroundImageFix" result="effect1_dropShadow_4002_3564"/>
<feBlend mode="normal" in="SourceGraphic" in2="effect1_dropShadow_4002_3564" result="shape"/>
</filter>
<filter id="filter7_d_4002_3564" x="433.738" y="82.9116" width="10.0291" height="10.0291" filterUnits="userSpaceOnUse" color-interpolation-filters="sRGB">
<feFlood flood-opacity="0" result="BackgroundImageFix"/>
<feColorMatrix in="SourceAlpha" type="matrix" values="0 0 0 0 0 0 0 0 0 0 0 0 0 0 0 0 0 0 127 0" result="hardAlpha"/>
<feOffset/>
<feGaussianBlur stdDeviation="1.7519"/>
<feComposite in2="hardAlpha" operator="out"/>
<feColorMatrix type="matrix" values="0 0 0 0 0.300483 0 0 0 0 0.323655 0 0 0 0 0.42098 0 0 0 1 0"/>
<feBlend mode="normal" in2="BackgroundImageFix" result="effect1_dropShadow_4002_3564"/>
<feBlend mode="normal" in="SourceGraphic" in2="effect1_dropShadow_4002_3564" result="shape"/>
</filter>
<filter id="filter8_d_4002_3564" x="494.168" y="22.4813" width="10.0291" height="10.0291" filterUnits="userSpaceOnUse" color-interpolation-filters="sRGB">
<feFlood flood-opacity="0" result="BackgroundImageFix"/>
<feColorMatrix in="SourceAlpha" type="matrix" values="0 0 0 0 0 0 0 0 0 0 0 0 0 0 0 0 0 0 127 0" result="hardAlpha"/>
<feOffset/>
<feGaussianBlur stdDeviation="1.7519"/>
<feComposite in2="hardAlpha" operator="out"/>
<feColorMatrix type="matrix" values="0 0 0 0 0.300483 0 0 0 0 0.323655 0 0 0 0 0.42098 0 0 0 1 0"/>
<feBlend mode="normal" in2="BackgroundImageFix" result="effect1_dropShadow_4002_3564"/>
<feBlend mode="normal" in="SourceGraphic" in2="effect1_dropShadow_4002_3564" result="shape"/>
</filter>
<filter id="filter9_d_4002_3564" x="494.168" y="82.9115" width="10.0291" height="10.0291" filterUnits="userSpaceOnUse" color-interpolation-filters="sRGB">
<feFlood flood-opacity="0" result="BackgroundImageFix"/>
<feColorMatrix in="SourceAlpha" type="matrix" values="0 0 0 0 0 0 0 0 0 0 0 0 0 0 0 0 0 0 127 0" result="hardAlpha"/>
<feOffset/>
<feGaussianBlur stdDeviation="1.7519"/>
<feComposite in2="hardAlpha" operator="out"/>
<feColorMatrix type="matrix" values="0 0 0 0 0.300483 0 0 0 0 0.323655 0 0 0 0 0.42098 0 0 0 1 0"/>
<feBlend mode="normal" in2="BackgroundImageFix" result="effect1_dropShadow_4002_3564"/>
<feBlend mode="normal" in="SourceGraphic" in2="effect1_dropShadow_4002_3564" result="shape"/>
</filter>
<filter id="filter10_d_4002_3564" x="253.496" y="22.4813" width="10.0291" height="10.0291" filterUnits="userSpaceOnUse" color-interpolation-filters="sRGB">
<feFlood flood-opacity="0" result="BackgroundImageFix"/>
<feColorMatrix in="SourceAlpha" type="matrix" values="0 0 0 0 0 0 0 0 0 0 0 0 0 0 0 0 0 0 127 0" result="hardAlpha"/>
<feOffset/>
<feGaussianBlur stdDeviation="1.7519"/>
<feComposite in2="hardAlpha" operator="out"/>
<feColorMatrix type="matrix" values="0 0 0 0 0.300483 0 0 0 0 0.323655 0 0 0 0 0.42098 0 0 0 1 0"/>
<feBlend mode="normal" in2="BackgroundImageFix" result="effect1_dropShadow_4002_3564"/>
<feBlend mode="normal" in="SourceGraphic" in2="effect1_dropShadow_4002_3564" result="shape"/>
</filter>
<filter id="filter11_d_4002_3564" x="253.496" y="82.9116" width="10.0291" height="10.0291" filterUnits="userSpaceOnUse" color-interpolation-filters="sRGB">
<feFlood flood-opacity="0" result="BackgroundImageFix"/>
<feColorMatrix in="SourceAlpha" type="matrix" values="0 0 0 0 0 0 0 0 0 0 0 0 0 0 0 0 0 0 127 0" result="hardAlpha"/>
<feOffset/>
<feGaussianBlur stdDeviation="1.7519"/>
<feComposite in2="hardAlpha" operator="out"/>
<feColorMatrix type="matrix" values="0 0 0 0 0.300483 0 0 0 0 0.323655 0 0 0 0 0.42098 0 0 0 1 0"/>
<feBlend mode="normal" in2="BackgroundImageFix" result="effect1_dropShadow_4002_3564"/>
<feBlend mode="normal" in="SourceGraphic" in2="effect1_dropShadow_4002_3564" result="shape"/>
</filter>
<filter id="filter12_d_4002_3564" x="312.879" y="22.4813" width="10.0291" height="10.0291" filterUnits="userSpaceOnUse" color-interpolation-filters="sRGB">
<feFlood flood-opacity="0" result="BackgroundImageFix"/>
<feColorMatrix in="SourceAlpha" type="matrix" values="0 0 0 0 0 0 0 0 0 0 0 0 0 0 0 0 0 0 127 0" result="hardAlpha"/>
<feOffset/>
<feGaussianBlur stdDeviation="1.7519"/>
<feComposite in2="hardAlpha" operator="out"/>
<feColorMatrix type="matrix" values="0 0 0 0 0.300483 0 0 0 0 0.323655 0 0 0 0 0.42098 0 0 0 1 0"/>
<feBlend mode="normal" in2="BackgroundImageFix" result="effect1_dropShadow_4002_3564"/>
<feBlend mode="normal" in="SourceGraphic" in2="effect1_dropShadow_4002_3564" result="shape"/>
</filter>
<filter id="filter13_d_4002_3564" x="312.879" y="82.9115" width="10.0291" height="10.0291" filterUnits="userSpaceOnUse" color-interpolation-filters="sRGB">
<feFlood flood-opacity="0" result="BackgroundImageFix"/>
<feColorMatrix in="SourceAlpha" type="matrix" values="0 0 0 0 0 0 0 0 0 0 0 0 0 0 0 0 0 0 127 0" result="hardAlpha"/>
<feOffset/>
<feGaussianBlur stdDeviation="1.7519"/>
<feComposite in2="hardAlpha" operator="out"/>
<feColorMatrix type="matrix" values="0 0 0 0 0.300483 0 0 0 0 0.323655 0 0 0 0 0.42098 0 0 0 1 0"/>
<feBlend mode="normal" in2="BackgroundImageFix" result="effect1_dropShadow_4002_3564"/>
<feBlend mode="normal" in="SourceGraphic" in2="effect1_dropShadow_4002_3564" result="shape"/>
</filter>
<filter id="filter14_d_4002_3564" x="71.1564" y="22.4813" width="10.0291" height="10.0291" filterUnits="userSpaceOnUse" color-interpolation-filters="sRGB">
<feFlood flood-opacity="0" result="BackgroundImageFix"/>
<feColorMatrix in="SourceAlpha" type="matrix" values="0 0 0 0 0 0 0 0 0 0 0 0 0 0 0 0 0 0 127 0" result="hardAlpha"/>
<feOffset/>
<feGaussianBlur stdDeviation="1.7519"/>
<feComposite in2="hardAlpha" operator="out"/>
<feColorMatrix type="matrix" values="0 0 0 0 0.300483 0 0 0 0 0.323655 0 0 0 0 0.42098 0 0 0 1 0"/>
<feBlend mode="normal" in2="BackgroundImageFix" result="effect1_dropShadow_4002_3564"/>
<feBlend mode="normal" in="SourceGraphic" in2="effect1_dropShadow_4002_3564" result="shape"/>
</filter>
<filter id="filter15_d_4002_3564" x="71.1564" y="82.9116" width="10.0291" height="10.0291" filterUnits="userSpaceOnUse" color-interpolation-filters="sRGB">
<feFlood flood-opacity="0" result="BackgroundImageFix"/>
<feColorMatrix in="SourceAlpha" type="matrix" values="0 0 0 0 0 0 0 0 0 0 0 0 0 0 0 0 0 0 127 0" result="hardAlpha"/>
<feOffset/>
<feGaussianBlur stdDeviation="1.7519"/>
<feComposite in2="hardAlpha" operator="out"/>
<feColorMatrix type="matrix" values="0 0 0 0 0.300483 0 0 0 0 0.323655 0 0 0 0 0.42098 0 0 0 1 0"/>
<feBlend mode="normal" in2="BackgroundImageFix" result="effect1_dropShadow_4002_3564"/>
<feBlend mode="normal" in="SourceGraphic" in2="effect1_dropShadow_4002_3564" result="shape"/>
</filter>
<filter id="filter16_d_4002_3564" x="131.586" y="22.4813" width="10.0291" height="10.0291" filterUnits="userSpaceOnUse" color-interpolation-filters="sRGB">
<feFlood flood-opacity="0" result="BackgroundImageFix"/>
<feColorMatrix in="SourceAlpha" type="matrix" values="0 0 0 0 0 0 0 0 0 0 0 0 0 0 0 0 0 0 127 0" result="hardAlpha"/>
<feOffset/>
<feGaussianBlur stdDeviation="1.7519"/>
<feComposite in2="hardAlpha" operator="out"/>
<feColorMatrix type="matrix" values="0 0 0 0 0.300483 0 0 0 0 0.323655 0 0 0 0 0.42098 0 0 0 1 0"/>
<feBlend mode="normal" in2="BackgroundImageFix" result="effect1_dropShadow_4002_3564"/>
<feBlend mode="normal" in="SourceGraphic" in2="effect1_dropShadow_4002_3564" result="shape"/>
</filter>
<filter id="filter17_d_4002_3564" x="131.586" y="82.9115" width="10.0291" height="10.0291" filterUnits="userSpaceOnUse" color-interpolation-filters="sRGB">
<feFlood flood-opacity="0" result="BackgroundImageFix"/>
<feColorMatrix in="SourceAlpha" type="matrix" values="0 0 0 0 0 0 0 0 0 0 0 0 0 0 0 0 0 0 127 0" result="hardAlpha"/>
<feOffset/>
<feGaussianBlur stdDeviation="1.7519"/>
<feComposite in2="hardAlpha" operator="out"/>
<feColorMatrix type="matrix" values="0 0 0 0 0.300483 0 0 0 0 0.323655 0 0 0 0 0.42098 0 0 0 1 0"/>
<feBlend mode="normal" in2="BackgroundImageFix" result="effect1_dropShadow_4002_3564"/>
<feBlend mode="normal" in="SourceGraphic" in2="effect1_dropShadow_4002_3564" result="shape"/>
</filter>
<filter id="filter18_i_4002_3564" x="57.0352" y="65.0344" width="36.9658" height="42.793" filterUnits="userSpaceOnUse" color-interpolation-filters="sRGB">
<feFlood flood-opacity="0" result="BackgroundImageFix"/>
<feBlend mode="normal" in="SourceGraphic" in2="BackgroundImageFix" result="shape"/>
<feColorMatrix in="SourceAlpha" type="matrix" values="0 0 0 0 0 0 0 0 0 0 0 0 0 0 0 0 0 0 127 0" result="hardAlpha"/>
<feOffset dy="5.8274"/>
<feGaussianBlur stdDeviation="9.46952"/>
<feComposite in2="hardAlpha" operator="arithmetic" k2="-1" k3="1"/>
<feColorMatrix type="matrix" values="0 0 0 0 0.154118 0 0 0 0 0.108562 0 0 0 0 0.124962 0 0 0 0.77 0"/>
<feBlend mode="normal" in2="shape" result="effect1_innerShadow_4002_3564"/>
</filter>
<filter id="filter19_i_4002_3564" x="478.5" y="138" width="41.9658" height="47.793" filterUnits="userSpaceOnUse" color-interpolation-filters="sRGB">
<feFlood flood-opacity="0" result="BackgroundImageFix"/>
<feBlend mode="normal" in="SourceGraphic" in2="BackgroundImageFix" result="shape"/>
<feColorMatrix in="SourceAlpha" type="matrix" values="0 0 0 0 0 0 0 0 0 0 0 0 0 0 0 0 0 0 127 0" result="hardAlpha"/>
<feOffset dy="5.8274"/>
<feGaussianBlur stdDeviation="9.46952"/>
<feComposite in2="hardAlpha" operator="arithmetic" k2="-1" k3="1"/>
<feColorMatrix type="matrix" values="0 0 0 0 0.154118 0 0 0 0 0.108562 0 0 0 0 0.124962 0 0 0 0.77 0"/>
<feBlend mode="normal" in2="shape" result="effect1_innerShadow_4002_3564"/>
</filter>
<filter id="filter20_i_4002_3564" x="233" y="57" width="115" height="120.827" filterUnits="userSpaceOnUse" color-interpolation-filters="sRGB">
<feFlood flood-opacity="0" result="BackgroundImageFix"/>
<feBlend mode="normal" in="SourceGraphic" in2="BackgroundImageFix" result="shape"/>
<feColorMatrix in="SourceAlpha" type="matrix" values="0 0 0 0 0 0 0 0 0 0 0 0 0 0 0 0 0 0 127 0" result="hardAlpha"/>
<feOffset dy="5.8274"/>
<feGaussianBlur stdDeviation="9.46952"/>
<feComposite in2="hardAlpha" operator="arithmetic" k2="-1" k3="1"/>
<feColorMatrix type="matrix" values="0 0 0 0 0.154118 0 0 0 0 0.108562 0 0 0 0 0.124962 0 0 0 0.77 0"/>
<feBlend mode="normal" in2="shape" result="effect1_innerShadow_4002_3564"/>
</filter>
<linearGradient id="paint0_linear_4002_3564" x1="75.5" y1="-1.88063e-08" x2="75.5" y2="238" gradientUnits="userSpaceOnUse">
<stop stop-color="#40455A" stop-opacity="0"/>
<stop offset="0.5" stop-color="#40455A"/>
<stop offset="1" stop-color="#40455A" stop-opacity="0"/>
</linearGradient>
<linearGradient id="paint1_linear_4002_3564" x1="316.5" y1="-1.88063e-08" x2="316.5" y2="238" gradientUnits="userSpaceOnUse">
<stop stop-color="#40455A" stop-opacity="0"/>
<stop offset="0.5" stop-color="#40455A"/>
<stop offset="1" stop-color="#40455A" stop-opacity="0"/>
</linearGradient>
<linearGradient id="paint2_linear_4002_3564" x1="437.5" y1="-1.88063e-08" x2="437.5" y2="238" gradientUnits="userSpaceOnUse">
<stop stop-color="#40455A" stop-opacity="0"/>
<stop offset="0.5" stop-color="#40455A"/>
<stop offset="1" stop-color="#40455A" stop-opacity="0"/>
</linearGradient>
<linearGradient id="paint3_linear_4002_3564" x1="135.5" y1="-1.88063e-08" x2="135.5" y2="238" gradientUnits="userSpaceOnUse">
<stop stop-color="#40455A" stop-opacity="0"/>
<stop offset="0.5" stop-color="#40455A"/>
<stop offset="1" stop-color="#40455A" stop-opacity="0"/>
</linearGradient>
<linearGradient id="paint4_linear_4002_3564" x1="257.5" y1="-1.88063e-08" x2="257.5" y2="238" gradientUnits="userSpaceOnUse">
<stop stop-color="#40455A" stop-opacity="0"/>
<stop offset="0.5" stop-color="#40455A"/>
<stop offset="1" stop-color="#40455A" stop-opacity="0"/>
</linearGradient>
<linearGradient id="paint5_linear_4002_3564" x1="498.5" y1="-1.88063e-08" x2="498.5" y2="238" gradientUnits="userSpaceOnUse">
<stop stop-color="#40455A" stop-opacity="0"/>
<stop offset="0.5" stop-color="#40455A"/>
<stop offset="1" stop-color="#40455A" stop-opacity="0"/>
</linearGradient>
<linearGradient id="paint6_linear_4002_3564" x1="587.594" y1="86.6431" x2="0.00189213" y2="86.643" gradientUnits="userSpaceOnUse">
<stop stop-color="#40455A" stop-opacity="0"/>
<stop offset="0.5" stop-color="#40455A"/>
<stop offset="1" stop-color="#40455A" stop-opacity="0"/>
</linearGradient>
<linearGradient id="paint7_linear_4002_3564" x1="587.594" y1="207.398" x2="0.00189213" y2="207.398" gradientUnits="userSpaceOnUse">
<stop stop-color="#40455A" stop-opacity="0"/>
<stop offset="0.5" stop-color="#40455A"/>
<stop offset="1" stop-color="#40455A" stop-opacity="0"/>
</linearGradient>
<linearGradient id="paint8_linear_4002_3564" x1="73.2076" y1="80.8218" x2="62.3058" y2="93.0343" gradientUnits="userSpaceOnUse">
<stop offset="0.099197" stop-color="#0A0B12"/>
<stop offset="1" stop-color="#251819"/>
</linearGradient>
<linearGradient id="paint9_linear_4002_3564" x1="496.86" y1="155.923" x2="484.484" y2="169.787" gradientUnits="userSpaceOnUse">
<stop offset="0.099197" stop-color="#0A0B12"/>
<stop offset="1" stop-color="#251819"/>
</linearGradient>
<linearGradient id="paint10_linear_4002_3564" x1="74.6478" y1="78.5993" x2="74.6478" y2="89.6781" gradientUnits="userSpaceOnUse">
<stop stop-color="#FFD5CA"/>
<stop offset="1" stop-color="#F39983"/>
</linearGradient>
<linearGradient id="paint11_linear_4002_3564" x1="75.5002" y1="82.0883" x2="75.5002" y2="90.5432" gradientUnits="userSpaceOnUse">
<stop stop-color="#FFD5CA"/>
<stop offset="1" stop-color="#F39983"/>
</linearGradient>
<linearGradient id="paint12_linear_4002_3564" x1="501.842" y1="152.275" x2="501.842" y2="158.319" gradientUnits="userSpaceOnUse">
<stop stop-color="#FFD5CA"/>
<stop offset="1" stop-color="#F39983"/>
</linearGradient>
<linearGradient id="paint13_linear_4002_3564" x1="494.557" y1="159.56" x2="494.557" y2="165.603" gradientUnits="userSpaceOnUse">
<stop stop-color="#FFD5CA"/>
<stop offset="1" stop-color="#F39983"/>
</linearGradient>
<linearGradient id="paint14_linear_4002_3564" x1="502.081" y1="160.858" x2="502.081" y2="164.182" gradientUnits="userSpaceOnUse">
<stop stop-color="#FFD5CA"/>
<stop offset="1" stop-color="#F39983"/>
</linearGradient>
<linearGradient id="paint15_linear_4002_3564" x1="503.123" y1="160.283" x2="503.123" y2="161.751" gradientUnits="userSpaceOnUse">
<stop stop-color="#FFD5CA"/>
<stop offset="1" stop-color="#F39983"/>
</linearGradient>
<linearGradient id="paint16_linear_4002_3564" x1="496.002" y1="156.012" x2="496.002" y2="152.688" gradientUnits="userSpaceOnUse">
<stop stop-color="#FFD5CA"/>
<stop offset="1" stop-color="#F39983"/>
</linearGradient>
<linearGradient id="paint17_linear_4002_3564" x1="494.96" y1="156.587" x2="494.96" y2="155.119" gradientUnits="userSpaceOnUse">
<stop stop-color="#FFD5CA"/>
<stop offset="1" stop-color="#F39983"/>
</linearGradient>
<radialGradient id="paint18_radial_4002_3564" cx="0" cy="0" r="1" gradientUnits="userSpaceOnUse" gradientTransform="translate(290.5 117.5) rotate(90) scale(76.3241)">
<stop stop-color="#F39983" stop-opacity="0.2"/>
<stop offset="1" stop-color="#F39983" stop-opacity="0"/>
</radialGradient>
<linearGradient id="paint19_linear_4002_3564" x1="283.313" y1="106.115" x2="249.397" y2="144.108" gradientUnits="userSpaceOnUse">
<stop offset="0.099197" stop-color="#0A0B12"/>
<stop offset="1" stop-color="#251819"/>
</linearGradient>
<linearGradient id="paint20_linear_4002_3564" x1="268.918" y1="115.112" x2="268.918" y2="135.891" gradientUnits="userSpaceOnUse">
<stop stop-color="#FFD5CA"/>
<stop offset="1" stop-color="#F39983"/>
</linearGradient>
<linearGradient id="paint21_linear_4002_3564" x1="290.837" y1="124.848" x2="290.837" y2="140.778" gradientUnits="userSpaceOnUse">
<stop stop-color="#FFD5CA"/>
<stop offset="1" stop-color="#F39983"/>
</linearGradient>
<linearGradient id="paint22_linear_4002_3564" x1="283.675" y1="114.809" x2="283.675" y2="133.279" gradientUnits="userSpaceOnUse">
<stop stop-color="#FFD5CA"/>
<stop offset="1" stop-color="#F39983"/>
</linearGradient>
<linearGradient id="paint23_linear_4002_3564" x1="302.648" y1="93.912" x2="302.648" y2="116.999" gradientUnits="userSpaceOnUse">
<stop stop-color="#FFD5CA"/>
<stop offset="1" stop-color="#F39983"/>
</linearGradient>
<linearGradient id="paint24_linear_4002_3564" x1="305.178" y1="100.645" x2="305.178" y2="107.571" gradientUnits="userSpaceOnUse">
<stop stop-color="#FFD5CA"/>
<stop offset="1" stop-color="#F39983"/>
</linearGradient>
</defs>
</svg>
