<svg xmlns="http://www.w3.org/2000/svg" width="179" height="18" fill="none">
    <g fill="#fff">
        <path d="M26.783 9.004a3.62 3.62 0 0 1-1.368 2.98l-5.102 4.612a4.72 4.72 0 0 1-3.473 1.41H0V.002h16.834a4.8 4.8 0 0 1 3.473 1.41l5.102 4.613a3.56 3.56 0 0 1 1.368 2.98zm-4.569-.725c0-2.58-2.037-4.676-4.557-4.676H3.827v10.801h13.768c2.551-.006 4.613-2.128 4.619-4.74zM87.259 9.004a3.61 3.61 0 0 1-1.375 2.98l-5.101 4.612a4.72 4.72 0 0 1-3.474 1.41H60.477V.002h16.84a4.8 4.8 0 0 1 3.473 1.41l5.102 4.613a3.56 3.56 0 0 1 1.368 2.98m-4.57-.725c0-2.58-2.036-4.676-4.556-4.676H64.296v10.801h13.769c2.55-.006 4.612-2.128 4.618-4.74V8.28zM38.522 3.603h17.595V.001H39.283c-1.3-.039-2.55.47-3.473 1.41l-5.102 4.613a3.6 3.6 0 0 0-1.368 2.98 3.58 3.58 0 0 0 1.368 2.98l5.102 4.612a4.83 4.83 0 0 0 3.473 1.41h16.84v-3.595H38.46c-2.111 0-3.95-1.493-4.433-3.603h22.096V7.212H34.04c.514-2.11 2.365-3.596 4.483-3.603zM177.625 6.024l-5.101-4.613a4.83 4.83 0 0 0-3.473-1.41h-16.834v18h16.834c1.3.038 2.55-.47 3.473-1.411l5.101-4.613a3.6 3.6 0 0 0 1.369-2.98 3.59 3.59 0 0 0-1.369-2.98zm-7.751-2.42c2.111 0 3.95 1.492 4.433 3.602h-18.27V3.603zm-.062 10.8h-13.769v-3.602h18.252c-.52 2.11-2.365 3.59-4.483 3.596zM144.032 0v14.398h-14.71c-2.452 0-4.439-2.04-4.439-4.556l.012-9.848h-3.826v8.92a5 5 0 0 0 1.368 3.565l4.062 4.105a4.78 4.78 0 0 0 3.473 1.41h17.88V0h-3.826zM99.257 0a4.72 4.72 0 0 0-3.473 1.411l-4.061 4.105a5.05 5.05 0 0 0-1.375 3.564V18h3.826v-7.198h14.141a4.72 4.72 0 0 0 3.473-1.41l1.517-1.532V18h3.826V0h-17.88zm9.838 7.2h-14.94c.44-2.097 2.248-3.603 4.34-3.603h14.94c-.439 2.103-2.247 3.602-4.34 3.602"></path>
    </g>
</svg>